<svg xmlns="http://www.w3.org/2000/svg" width="31.152" height="29.606" viewBox="0 0 31.152 29.606"><defs><style>.a{fill:#38bae8;}.b{fill:none;stroke:#38bae8;stroke-linecap:round;stroke-linejoin:round;stroke-width:1.6px;}</style></defs><g transform="translate(-820.776 -377.229)"><g transform="translate(829.817 389.45)"><path class="a" d="M841.415,403.91a.91.91,0,1,1-.91-.91A.91.91,0,0,1,841.415,403.91Z" transform="translate(-839.595 -403)"/><path class="a" d="M851.6,403.91a.91.91,0,1,1-.91-.91A.91.91,0,0,1,851.6,403.91Z" transform="translate(-845.122 -403)"/><path class="a" d="M861.786,403.91a.91.91,0,1,1-.91-.91A.91.91,0,0,1,861.786,403.91Z" transform="translate(-850.649 -403)"/></g><path class="b" d="M835.676,378.029a12.149,12.149,0,0,0-10.74,17.836l-3.36,5.581,7.071-1.354-.009-.013a12.15,12.15,0,1,0,7.038-22.05Z"/><path class="b" d="M858.543,405.209a10.265,10.265,0,0,1,.281,10.107l2.839,4.716-5.975-1.144.007-.011a10.255,10.255,0,0,1-14.706-3" transform="translate(-10.534 -14.749)"/></g></svg>