<svg xmlns="http://www.w3.org/2000/svg" width="30.306" height="30.306" viewBox="0 0 30.306 30.306"><defs><style>.a{fill:none;stroke:#0c6fb8;stroke-linecap:round;stroke-linejoin:round;stroke-width:1.6px;}</style></defs><g transform="translate(-147.379 -531.569)"><path class="a" d="M201.4,554.026c.129-.012.255-.033.388-.033a3.24,3.24,0,0,1,3.491,2.909v5.043a3.24,3.24,0,0,1-3.491,2.91c-.133,0-.388-.033-.388-.033" transform="translate(-28.4 -11.538)"/><path class="a" d="M152.058,554.026c-.129-.012-.255-.033-.388-.033a3.24,3.24,0,0,0-3.491,2.909v5.043a3.24,3.24,0,0,0,3.491,2.91c.133,0,.259-.021.388-.033l.6-.084" transform="translate(0 -11.538)"/><path class="a" d="M179.112,587.535a1.939,1.939,0,0,1-1.939,1.939h-5.431a1.939,1.939,0,0,1-1.94-1.939h0a1.94,1.94,0,0,1,1.94-1.94h5.431a1.94,1.94,0,0,1,1.939,1.94Z" transform="translate(-11.537 -28.4)"/><path class="a" d="M163.154,557.894a7.76,7.76,0,0,1-6.658-7.681V540.127a7.758,7.758,0,0,1,7.758-7.758h5.431a7.758,7.758,0,0,1,7.758,7.758v13.189" transform="translate(-4.438 0)"/></g></svg>