<svg xmlns="http://www.w3.org/2000/svg" width="17.17" height="15.926" viewBox="0 0 17.17 15.926"><defs><style>.a{fill:#ccc;}</style></defs><g transform="translate(-138.647 -137.2)"><path class="a" d="M166.467,187.967a.557.557,0,1,0,.557.557A.557.557,0,0,0,166.467,187.967Z" transform="translate(-24.094 -44.863)"/><circle class="a" cx="0.6" cy="0.6" r="0.6" transform="translate(147.639 143.044)"/><path class="a" d="M153.52,137.2H140.944a2.3,2.3,0,0,0-2.3,2.3v7.464a2.3,2.3,0,0,0,2.3,2.3h4.442l1.511,3.559s.1.309.356.309h0c.252,0,.356-.309.356-.309l1.511-3.559h4.4a2.3,2.3,0,0,0,2.3-2.3V139.5A2.3,2.3,0,0,0,153.52,137.2Zm-9.479,6.6a1.422,1.422,0,0,1-1.418,1.4,1.179,1.179,0,0,1-.854-.362v.246h-1.027v-4.237s0,0,0,0v0c.064.01,1.027,0,1.027,0v1.621c.242-.412.941-.405.941-.405A1.5,1.5,0,0,1,144.041,143.8Zm1.809-1.606v2.9h-1.006v-2.872c0-.391-.485-.5-.485-.5v-1.013A1.39,1.39,0,0,1,145.85,142.192Zm2.384,3.011a1.557,1.557,0,1,1,1.686-1.552A1.623,1.623,0,0,1,148.234,145.2Zm5.509,0a1.434,1.434,0,0,1-1.483,1.474H151.8v-.955h.275s.629.058.622-.912c0,0-.123.392-1.006.392a1.326,1.326,0,0,1-1.252-1.311v-.463a1.43,1.43,0,0,1,1.4-1.367,1.024,1.024,0,0,1,.875.391v-.311h1.02Z" transform="translate(0)"/><circle class="a" cx="0.586" cy="0.586" r="0.586" transform="translate(151.58 143.058)"/></g></svg>