<svg xmlns="http://www.w3.org/2000/svg" width="57.27" height="58.822" viewBox="0 0 57.27 58.822"><defs><style>.a{fill:none;stroke:#fff;stroke-linecap:round;stroke-linejoin:round;stroke-width:2.6px;}</style></defs><g transform="translate(-147.426 -838.956)"><g transform="translate(149.23 840.256)"><path class="a" d="M199.469,857.808c1.9,1.416,3.426,3.794,3.426,5.843v31.8a1.992,1.992,0,0,1-1.986,1.985H151.214a1.991,1.991,0,0,1-1.984-1.985v-31.8c0-2.1,1.084-3.825,3.419-5.733" transform="translate(-149.23 -841.215)"/><path class="a" d="M166.444,847.394l7.313-5.423s2.21-1.715,3.763-1.715,3.591,1.774,3.591,1.774l6.654,5.145" transform="translate(-150.171 -840.256)"/><path class="a" d="M149.23,870.743l22.977,15.4s2.359,2.129,3.711,2.129,3.725-2.129,3.725-2.129l23.252-15.4" transform="translate(-149.23 -841.922)"/><path class="a" d="M152.848,871.84V849.792a1.991,1.991,0,0,1,1.985-1.985h42.853a1.991,1.991,0,0,1,1.985,1.985v22.02" transform="translate(-149.428 -840.669)"/></g><line class="a" x2="30.549" transform="translate(160.787 859.506)"/><line class="a" x2="30.549" transform="translate(160.787 867.211)"/></g></svg>