<svg xmlns="http://www.w3.org/2000/svg" width="61.346" height="58.822" viewBox="0 0 61.346 58.822"><defs><style>.a{fill:none;stroke:#fff;stroke-linecap:round;stroke-linejoin:round;stroke-width:2.6px;}</style></defs><g transform="translate(-990.607 -378.408)"><path class="a" d="M1033.135,429.717l-7.644,1.434,1.434-7.644" transform="translate(-1.472 -1.92)"/><path class="a" d="M1033.418,428.851l18.494-18.418a.956.956,0,0,0,0-1.35L1046.834,404a.958.958,0,0,0-1.35,0l-18.494,18.418Z" transform="translate(-1.538 -1.053)"/><path class="a" d="M1002.9,379.708v47.258s-.825,7.72-5.688,7.72" transform="translate(-0.233)"/><line class="a" x2="24.186" transform="translate(1010.74 394.227)"/><line class="a" x2="24.186" transform="translate(1010.74 402.061)"/><line class="a" x2="12.401" transform="translate(1010.74 409.895)"/><line class="a" x2="12.401" transform="translate(1010.74 417.728)"/><path class="a" d="M1042.105,404.783V379.708h-39.261l-.176,38.309H991.907v8.949c0,5.283,4.472,8.964,9.936,8.964h30.326c5.464,0,9.935-3.681,9.935-8.964v-8.439"/></g></svg>